<svg width="32" height="32" viewBox="0 0 32 32" fill="none" xmlns="http://www.w3.org/2000/svg">
<g clip-path="url(#clip0_1_111)">
<path d="M15.208 0.175992L0.781334 6.91599C0.683774 6.96073 0.601126 7.03256 0.543229 7.12294C0.485332 7.21331 0.454625 7.31842 0.454766 7.42575C0.454906 7.53308 0.485886 7.63811 0.54402 7.72833C0.602153 7.81856 0.68499 7.89017 0.782667 7.93466L15.3227 14.6253C15.752 14.8227 16.248 14.8227 16.6773 14.6253L31.2173 7.93466C31.3151 7.8903 31.398 7.81879 31.4563 7.72865C31.5145 7.6385 31.5456 7.53351 31.5459 7.42618C31.5462 7.31885 31.5156 7.2137 31.4578 7.12325C31.4001 7.0328 31.3175 6.96086 31.22 6.91599L16.792 0.175992C16.5441 0.0601174 16.2737 6.10352e-05 16 6.10352e-05C15.7263 6.10352e-05 15.4559 0.0601174 15.208 0.175992Z" fill="#37CDAB"/>
<path opacity="0.64" d="M31.22 15.568L28.24 14.176C28.0266 14.0763 27.794 14.0243 27.5584 14.0236C27.3229 14.0229 27.09 14.0735 26.876 14.172L16.6773 18.8653C16.4649 18.963 16.2338 19.0136 16 19.0136C15.7662 19.0136 15.5351 18.963 15.3227 18.8653L5.12266 14.172C4.90885 14.0737 4.67621 14.0232 4.44089 14.0239C4.20558 14.0246 3.97324 14.0765 3.76 14.176L0.779998 15.568C0.682495 15.6128 0.599941 15.6848 0.542162 15.7752C0.484383 15.8657 0.453815 15.9708 0.454096 16.0782C0.454377 16.1855 0.485494 16.2905 0.543746 16.3806C0.601998 16.4708 0.68493 16.5423 0.782666 16.5866L15.3227 23.276C15.535 23.3742 15.7661 23.4251 16 23.4251C16.2339 23.4251 16.465 23.3742 16.6773 23.276L31.2173 16.5866C31.3151 16.5423 31.398 16.4708 31.4563 16.3806C31.5145 16.2905 31.5456 16.1855 31.5459 16.0782C31.5462 15.9708 31.5156 15.8657 31.4578 15.7752C31.4001 15.6848 31.3175 15.6128 31.22 15.568Z" fill="#8C9ACC"/>
<path d="M31.22 24.144L28.24 22.752C28.0266 22.6523 27.794 22.6003 27.5584 22.5996C27.3229 22.5989 27.09 22.6495 26.876 22.748L16.6773 27.44C16.4649 27.5377 16.2338 27.5883 16 27.5883C15.7662 27.5883 15.5351 27.5377 15.3227 27.44L5.12267 22.7467C4.90885 22.6484 4.67621 22.5979 4.44089 22.5985C4.20558 22.5992 3.97324 22.6511 3.76 22.7507L0.779999 24.144C0.682872 24.189 0.600689 24.261 0.543186 24.3513C0.485682 24.4416 0.455269 24.5465 0.455549 24.6535C0.45583 24.7606 0.486794 24.8653 0.54477 24.9553C0.602746 25.0453 0.685305 25.1168 0.782667 25.1613L15.3227 31.852C15.752 32.0493 16.248 32.0493 16.6773 31.852L31.2173 25.1613C31.3147 25.1168 31.3973 25.0453 31.4552 24.9553C31.5132 24.8653 31.5442 24.7606 31.5445 24.6535C31.5447 24.5465 31.5143 24.4416 31.4568 24.3513C31.3993 24.261 31.3171 24.189 31.22 24.144Z" fill="#2C50AE"/>
</g>
<defs>
<clipPath id="clip0_1_111">
<rect width="32" height="32" fill="white"/>
</clipPath>
</defs>
</svg>
