<svg width="32" height="32" viewBox="0 0 32 32" fill="none" xmlns="http://www.w3.org/2000/svg">
<g clip-path="url(#clip0_1_156)">
<path d="M32 7.27273V1.45455C32 1.06878 31.8468 0.698806 31.574 0.426025C31.3012 0.153245 30.9312 0 30.5455 0H1.45455C1.06878 0 0.698806 0.153245 0.426025 0.426025C0.153245 0.698806 0 1.06878 0 1.45455V7.27273H32Z" fill="#2C50AE"/>
<path d="M0 10.1818V30.5455C0 30.9312 0.153245 31.3012 0.426025 31.574C0.698806 31.8468 1.06878 32 1.45455 32H8.72727V10.1818H0Z" fill="#8C9ACC"/>
<path d="M11.6363 32H30.5454C30.9312 32 31.3011 31.8468 31.5739 31.574C31.8467 31.3012 32 30.9312 32 30.5455V10.1818H11.6363V32Z" fill="#37CDAB"/>
</g>
<defs>
<clipPath id="clip0_1_156">
<rect width="32" height="32" fill="white"/>
</clipPath>
</defs>
</svg>
